# xmcd
#
# Track frame offsets:
# 150
# 13221
# 27208
# 39717
# 57976
# 73229
# 88634
# 102966
# 116834
# 131834
# 146444
# 160764
# 174224
# 185121
# 200308
#
# Disc length: 2861 seconds
#
#
# Revision: 0
# Processed by: cddbd v1.5.1PL0 Copyright (c) Steve Scherf et al.
# Submitted via: FreeRIP 2.942 
#
DISCID=d70b2b0f
DTITLE=Forró BAilão 2004
DYEAR=2004
DGENRE=Bailão 
TTITLE0=De Bem com a Vida - Rio Negroe Solimões
TTITLE1=Cara de Boi - Gino and Geno
TTITLE2=A Viola Tiniu - Diogo and Marcel
TTITLE3=Ela é Show - Guto and Nando
TTITLE4=O Chão Vai Tremer - Edson  and Hudson
TTITLE5=Rodo Sem Borracha - Juliano Cezar
TTITLE6=Mexe Que Mexe - Zezé Di Camargo and Luciano
TTITLE7=Apzaziguar - Bruno and Marrone
TTITLE8=Pra Lá de Bagda - Gian and Giovani
TTITLE9=Trovejou Mas Não Choveu - André and Adriano
TTITLE10=Hoje Tem Show de Bola - Felipe and Facão
TTITLE11=Mulher Chorona - Teodoro and Sampaio
TTITLE12=O Amor Se Vai - Leonardo
TTITLE13=Vol,ta Amor - Gilberto e& Gilmar
TTITLE14=Festa em Barretos - Remix Sertanejo
EXTD=
EXTT0=
EXTT1=
EXTT2=
EXTT3=
EXTT4=
EXTT5=
EXTT6=
EXTT7=
EXTT8=
EXTT9=
EXTT10=
EXTT11=
EXTT12=
EXTT13=
EXTT14=
PLAYORDER=
